<?xml version="1.0" encoding="utf-8"?>
<!-- Generator: Adobe Illustrator 20.0.0, SVG Export Plug-In . SVG Version: 6.00 Build 0)  -->
<svg version="1.1" id="Capa_1" xmlns="http://www.w3.org/2000/svg" xmlns:xlink="http://www.w3.org/1999/xlink" x="0px" y="0px"
	 viewBox="0 0 369.3 195.4" style="enable-background:new 0 0 369.3 195.4;" xml:space="preserve">
<style type="text/css">
	.st0{fill:#7B348B;}
	.st1{fill:#3C3C3B;}
	.st2{fill:#706F6F;}
</style>
<g>
	<g>
		<g>
			<path class="st0" d="M91.2,91.9l-2,2.6l-1.9,2.7c-1.2,1.8-2.4,3.6-3.6,5.5c-1.2,1.8-2.3,3.7-3.4,5.6l-3.3,5.6
				c-2.2,3.8-4.3,7.6-6.4,11.4l-3.1,5.7l-1.5,2.9c-0.5,1-1,1.9-1.6,2.9l0,0.1l-0.1,0.1c-1.2,1.3-2.5,2.4-3.8,3.6
				c-1.3,1.1-2.6,2.3-4,3.3c-2.7,2.1-5.6,4.1-8.6,5.9c-1.5,0.9-3.1,1.7-4.7,2.3c-1.6,0.7-3.3,1.2-5.1,1.6c-0.9,0.2-1.8,0.2-2.7,0.4
				c-0.1,0-0.2,0-0.3,0c0,0-0.1,0-0.2,0c-0.1,0-0.3,0.1-0.4,0.2c-0.2,0.2-0.5,0.4-0.6,0.6c-0.3,0.5-0.3,1,0,1.4
				c0.4,0.4,1.1,0.7,1.9,0.9c1.6,0.4,3.3,0.5,4.9,0.5c1.7,0,3.4,0,5.1-0.1c1.7-0.1,3.4-0.2,5.1-0.5c0.8-0.1,1.7-0.2,2.5-0.4
				c0.8-0.2,1.7-0.4,2.6-0.5c0.9-0.1,1.8-0.1,2.7-0.1l1.3,0.1c0.4,0,0.9,0.1,1.3,0.1c1.6,0,3.3-0.2,4.7-0.8c0.7-0.4,1.2-0.8,1.6-1.4
				c0.4-0.6,0.5-1.3,0.5-2.1c0-1.5-0.6-3.1-1.4-4.6l-0.2-0.4l0.3-0.3c0.9-1.1,1.8-2,2.7-2.9c0.9-0.9,1.9-1.8,2.8-2.7
				c1.9-1.8,3.9-3.5,5.8-5.2c3.9-3.4,7.9-6.8,11.8-10.1l0,0c1.5-1.8,3-3.6,4.2-5.6c0.6-1,1.1-2.1,1.5-3.1c0.2-0.5,0.4-1.1,0.5-1.7
				c0.1-0.6,0.2-1.2,0.2-1.7c0,0.6,0,1.2-0.1,1.8c-0.1,0.6-0.2,1.2-0.4,1.7c-0.4,1.1-0.8,2.2-1.4,3.2c-1.1,2.1-2.5,4-4,5.8l0,0l0,0
				l-11.5,10.5c-1.9,1.8-3.8,3.5-5.7,5.3c-0.9,0.9-1.9,1.8-2.8,2.7c-0.9,0.9-1.8,1.9-2.5,2.8l0.1-0.7c0.8,1.6,1.5,3.3,1.6,5.2
				c0,1-0.2,2-0.7,2.9c-0.5,0.9-1.4,1.5-2.2,2c-1.8,0.8-3.6,1-5.4,1c-0.5,0-0.9,0-1.3,0l-1.3-0.1c-0.8,0-1.6,0-2.4,0.1
				c-0.8,0.1-1.6,0.3-2.5,0.5c-0.9,0.2-1.7,0.3-2.6,0.5c-1.7,0.2-3.5,0.4-5.2,0.5c-1.7,0.1-3.5,0.2-5.2,0.2c-1.8,0-3.5-0.1-5.3-0.5
				c-0.9-0.3-1.8-0.5-2.7-1.3c-0.2-0.2-0.4-0.5-0.5-0.8c-0.1-0.2-0.2-0.8-0.2-0.9c0-0.7,0.2-1.2,0.5-1.7c0.3-0.5,0.7-0.9,1.2-1.2
				c0.3-0.1,0.5-0.3,0.8-0.3c0.1,0,0.3-0.1,0.5-0.1l0.3,0c0.8-0.1,1.6-0.1,2.4-0.3c1.6-0.3,3.2-0.8,4.8-1.5c1.6-0.6,3.1-1.4,4.6-2.2
				c3-1.7,5.8-3.6,8.5-5.7c1.4-1,2.7-2.1,4-3.2c1.3-1.1,2.6-2.3,3.7-3.5l-0.1,0.1l6.4-11.4c2.2-3.8,4.4-7.5,6.7-11.3
				c1.1-1.9,2.3-3.7,3.5-5.5c1.2-1.8,2.4-3.7,3.6-5.5c1.2-1.8,2.5-3.6,3.8-5.3l2-2.6L91.2,91.9z"/>
			<path class="st0" d="M75.2,141.4c1.5,1,3,1.7,4.6,2.5c1.6,0.7,3.2,1.4,4.9,1.9c0.8,0.3,1.7,0.6,2.5,0.8c0.8,0.3,1.7,0.5,2.5,0.7
				c0.8,0.2,1.7,0.4,2.5,0.6c0.9,0.2,1.7,0.4,2.6,0.6l2.6,0.5l2.6,0.4c1.7,0.3,3.5,0.5,5.2,0.6c1.7,0.1,3.5,0.3,5.2,0.3l2.6,0.1
				l2.6,0c1.7,0,3.5,0,5.3,0c1.8,0,3.5,0.1,5.3,0.2c3.5,0.2,7,0.5,10.5,0.8c3.5,0.3,7,0.7,10.5,1.1c1.7,0.2,3.5,0.4,5.2,0.6
				c0.9,0.1,1.7,0.2,2.6,0.2c0.4,0,0.8,0,1.2,0c0.2,0,0.4,0,0.5,0c0.1,0,0.1,0,0.1,0c0,0,0,0-0.1,0c0,0-0.1,0.1-0.1,0.1
				c0,0.1-0.1,0.1-0.1,0.2l0.4-0.5c-0.2,0.1-0.2,0.2-0.2,0.2c0,0,0,0,0,0c0-0.1,0-0.2,0-0.4c-0.1-0.3-0.2-0.6-0.3-0.9
				c-0.3-0.6-0.7-1.2-1.1-1.8c-0.9-1.1-2-2-3.3-2.6c-1.3-0.6-2.7-0.9-4.2-0.8c-0.8,0-1.6,0-2.4,0c-0.8-0.1-1.8-0.4-2.5-1
				c-0.7-0.6-1.2-1.4-1.6-2.1c-0.3-0.7-0.6-1.4-0.9-2.1c-0.3-0.7-0.7-1.3-1.1-1.7c-0.4-0.4-1-0.6-1.7-0.8c-0.1,0-0.4-0.1-0.5-0.1
				c-0.2,0-0.3,0-0.5,0c-0.3,0-0.7,0-1,0.1c-0.7,0.2-1.3,0.5-2,0.8c-1.3,0.7-2.6,1.6-3.8,2.5l-0.2,0.1l-0.2,0
				c-3.5-0.3-6.9-0.9-10.3-1.8c-3.4-0.9-6.7-2-9.8-3.6c-1.6-0.8-3.1-1.6-4.6-2.4c-1.5-0.8-3-1.7-4.6-2.4c-0.8-0.4-1.6-0.7-2.4-1
				c-0.8-0.3-1.6-0.5-2.5-0.7c-0.4-0.1-0.8-0.2-1.3-0.3c-0.4-0.1-0.8-0.2-1.3-0.2c-0.9-0.1-1.7-0.2-2.6-0.3c0.9,0,1.7,0,2.6,0.1
				c0.4,0,0.9,0.1,1.3,0.1c0.4,0.1,0.9,0.1,1.3,0.2c0.9,0.2,1.7,0.4,2.5,0.6c0.8,0.2,1.7,0.6,2.5,0.9c1.6,0.7,3.2,1.5,4.7,2.2
				c1.5,0.8,3.1,1.5,4.7,2.2c3.1,1.4,6.4,2.5,9.7,3.3c3.3,0.8,6.7,1.3,10.1,1.5l-0.4,0.1c1.3-0.9,2.5-1.8,3.9-2.6
				c0.7-0.4,1.5-0.8,2.3-1c0.4-0.1,0.9-0.2,1.3-0.2c0.2,0,0.5,0,0.7,0c0.2,0,0.4,0,0.6,0.1c0.8,0.2,1.7,0.4,2.4,1.1
				c0.7,0.7,1.1,1.4,1.4,2.1c0.3,0.7,0.6,1.5,1,2.1c0.3,0.6,0.7,1.2,1.1,1.6c0.5,0.4,1,0.6,1.7,0.6c0.7,0.1,1.4,0,2.2,0
				c1.6-0.1,3.3,0.2,4.8,0.9c1.5,0.7,2.9,1.7,3.9,3c0.5,0.6,1,1.4,1.3,2.1c0.2,0.4,0.3,0.8,0.4,1.3c0.1,0.2,0.1,0.5,0.1,0.8
				c0,0.2,0,0.3-0.1,0.5c-0.1,0.2-0.2,0.5-0.5,0.7l0.4-0.5c0,0.1-0.1,0.3-0.2,0.4c-0.1,0.1-0.1,0.2-0.2,0.2
				c-0.1,0.1-0.3,0.2-0.3,0.2c-0.2,0.1-0.3,0.1-0.5,0.1c-0.3,0-0.5,0.1-0.8,0.1c-0.5,0-0.9,0-1.4,0c-0.9-0.1-1.8-0.1-2.7-0.2
				c-1.8-0.2-3.5-0.4-5.2-0.6c-3.5-0.4-7-0.9-10.4-1.2c-3.5-0.4-7-0.7-10.5-0.9c-1.7-0.1-3.5-0.2-5.2-0.2l-5.3-0.1l-2.6-0.1
				l-2.6-0.2c-1.8-0.1-3.5-0.3-5.3-0.5c-1.7-0.2-3.5-0.4-5.2-0.8l-2.6-0.5l-2.6-0.6c-0.9-0.2-1.7-0.4-2.6-0.7
				c-0.9-0.2-1.7-0.5-2.5-0.7c-0.8-0.3-1.7-0.5-2.5-0.8c-0.8-0.3-1.7-0.6-2.5-0.9c-1.6-0.6-3.3-1.3-4.8-2.1
				C78.2,143.3,76.6,142.5,75.2,141.4z"/>
			<path class="st0" d="M98.1,116.3c0,0,2.3,0.9,5.6,2.8c1.6,0.9,3.5,2,5.5,3.3c2,1.3,4,2.7,6,4.2c1,0.8,2,1.5,2.9,2.3
				c1,0.8,1.8,1.6,2.7,2.4c0.9,0.8,1.7,1.6,2.4,2.3c0.8,0.7,1.4,1.5,2.1,2.2c0.6,0.7,1.1,1.4,1.6,2c0.5,0.6,0.8,1.1,1.1,1.6
				c0.6,0.9,0.9,1.4,0.9,1.4s-0.4-0.4-1.2-1.2c-0.4-0.4-0.8-0.9-1.4-1.4c-0.6-0.5-1.1-1.1-1.8-1.7c-0.7-0.6-1.4-1.3-2.2-2
				c-0.8-0.7-1.6-1.4-2.5-2.1c-0.9-0.7-1.8-1.5-2.8-2.2c-0.9-0.8-1.9-1.5-2.9-2.2c-1-0.8-2-1.5-2.9-2.2c-1-0.7-1.9-1.4-2.9-2.1
				c-1.9-1.3-3.6-2.6-5.2-3.7C100.1,117.8,98.1,116.3,98.1,116.3z"/>
			<path class="st0" d="M92.5,124.5c0,0,0.1,0,0.2-0.1c0.1-0.1,0.3-0.2,0.5-0.2c0.4-0.2,1.1-0.4,1.9-0.6c0.8-0.2,1.7-0.4,2.7-0.5
				c0.5,0,1-0.1,1.6-0.1c0.5,0,1.1,0,1.6,0c1.1,0,2.2,0.1,3.2,0.3c0.5,0.1,1,0.2,1.4,0.3c0.5,0.1,0.9,0.3,1.3,0.4
				c0.4,0.1,0.7,0.3,1,0.5c0.3,0.2,0.5,0.3,0.7,0.5c0.4,0.3,0.6,0.5,0.6,0.5s-0.3,0-0.7-0.2c-0.5-0.1-1.1-0.2-1.9-0.3
				c-0.8-0.1-1.7-0.2-2.6-0.2c-0.5,0-1,0-1.5-0.1c-0.5,0-1,0-1.5,0c-1,0-2.1,0-3.1,0c-1,0-1.9,0-2.7,0c-0.8,0-1.5,0-1.9,0
				C92.8,124.4,92.5,124.5,92.5,124.5z"/>
			<path class="st0" d="M120.1,105.1c0,0,0.1,0,0.3,0c0.2,0,0.6,0,1,0.1c0.8,0.1,2,0.5,3.2,1.1c1.3,0.6,2.7,1.4,4.2,2.3
				c0.7,0.5,1.5,0.9,2.3,1.4c0.8,0.5,1.5,1,2.3,1.5c0.8,0.5,1.5,1,2.3,1.6c0.7,0.5,1.5,1,2.2,1.5c1.4,0.9,2.8,1.8,4,2.4
				c0.6,0.3,1.2,0.6,1.7,0.8c0.5,0.2,1,0.3,1.4,0.4c0.4,0,0.7,0.1,0.9,0c0.2,0,0.3,0,0.3,0s-0.1,0-0.3,0.1c-0.2,0.1-0.5,0.2-0.9,0.2
				c-0.4,0-0.9,0-1.5-0.1c-0.6-0.1-1.2-0.3-1.9-0.5c-1.4-0.5-2.8-1.2-4.4-2c-0.8-0.4-1.5-0.9-2.3-1.4c-0.8-0.5-1.5-1-2.3-1.5
				c-1.5-1.1-3-2.1-4.4-3.1c-1.4-1-2.7-1.9-3.8-2.7c-1.1-0.8-2.1-1.3-2.8-1.7c-0.4-0.1-0.6-0.3-0.9-0.3
				C120.2,105.1,120.1,105.1,120.1,105.1z"/>
			<path class="st0" d="M133.1,96.5c0,0,0.2-0.1,0.5-0.1c0.3-0.1,0.7-0.2,1.2-0.3c0.5-0.1,1-0.3,1.5-0.6c0.5-0.2,1-0.6,1.4-0.9
				c0.2-0.2,0.4-0.4,0.6-0.6c0.1-0.1,0.2-0.2,0.3-0.3c0.1-0.1,0.2-0.2,0.3-0.4c0.4-0.5,0.7-0.9,1-1.4c0.1-0.2,0.3-0.4,0.4-0.6
				c0.1-0.2,0.2-0.3,0.3-0.5c0.2-0.3,0.3-0.4,0.3-0.4s0,0.2,0,0.5c0,0.3,0,0.8-0.1,1.3c0,0.3-0.1,0.6-0.2,0.9
				c-0.1,0.3-0.2,0.6-0.4,0.9c-0.2,0.3-0.3,0.6-0.6,0.9c-0.2,0.3-0.5,0.6-0.8,0.9c-0.3,0.2-0.6,0.5-1,0.7c-0.3,0.2-0.7,0.3-1.1,0.4
				c-0.4,0.1-0.7,0.1-1,0.1c-0.3,0-0.6,0-0.9,0c-0.6-0.1-1-0.2-1.3-0.3C133.3,96.6,133.1,96.5,133.1,96.5z"/>
			<path class="st0" d="M137,53.7c1,0.4,2.1,0.6,3.1,1c1,0.4,2.1,0.8,3.1,1.2c1,0.5,2,1.1,2.8,1.8c0.5,0.3,0.8,0.8,1.2,1.2
				c0.3,0.5,0.8,0.9,1,1.4l0.4,0.8c0.1,0.3,0.2,0.5,0.3,0.8c0.2,0.5,0.3,1.1,0.4,1.7c0.2,1.1,0.1,2.3,0.1,3.4
				c-0.2,2.2-0.5,4.4-0.9,6.6l-1.1,6.5c-0.2,1.1-0.3,2.2-0.4,3.2c-0.1,1.1-0.2,2.2-0.3,3.2c-0.1,1.1-0.2,2.2-0.2,3.2
				c0,1.1-0.1,2.2,0,3.2c0,1.1,0.1,2.2,0.1,3.2c0.1,1.1,0.2,2.2,0.3,3.2l0-0.1c0.4,1.5,1,3,1.6,4.4c0.6,1.5,1.3,2.9,2,4.3
				c1.5,2.8,3.1,5.6,5.1,7.9l0,0.1l0,0c0.7,1.1,1.3,2.3,1.8,3.6c0.5,1.2,0.9,2.6,1.1,3.9c0.2,1.3,0.3,2.7,0.3,4c0,0.7,0,1.3,0,2
				c0,0.6-0.1,1.3-0.2,2c-0.3,2.6-1.1,5.2-2.2,7.6c-0.3,0.6-0.6,1.2-0.9,1.8c-0.3,0.6-0.7,1.1-1.1,1.7c-0.4,0.5-0.8,1-1.3,1.5
				l-0.7,0.7l-0.8,0.6l0.7-0.6l0.7-0.7l0.6-0.8l0.5-0.8c0.3-0.6,0.7-1.1,0.9-1.7c0.3-0.6,0.5-1.2,0.8-1.8c0.2-0.6,0.4-1.2,0.6-1.8
				c0.2-0.6,0.4-1.2,0.5-1.9c0.2-0.6,0.3-1.3,0.4-1.9c0.1-0.6,0.2-1.3,0.2-1.9c0.1-0.6,0.1-1.3,0.1-1.9c0-0.7,0-1.3,0-1.9
				c-0.1-1.3-0.2-2.6-0.5-3.8c-0.3-1.2-0.7-2.4-1.2-3.6c-0.5-1.1-1.2-2.2-1.9-3.4l0.1,0.1c-0.5-0.6-1.1-1.3-1.5-1.9
				c-0.5-0.7-1-1.3-1.4-2c-0.9-1.4-1.7-2.8-2.5-4.2c-0.8-1.4-1.5-2.9-2.1-4.4c-0.6-1.5-1.2-3-1.7-4.6l0-0.1l0-0.1
				c-0.1-1.1-0.2-2.2-0.3-3.3c0-1.1-0.1-2.2-0.1-3.3c0-1.1,0-2.2,0.1-3.3c0-1.1,0.1-2.2,0.2-3.3c0.1-1.1,0.2-2.2,0.4-3.3
				c0.1-1.1,0.3-2.2,0.5-3.3c0.4-2.2,0.8-4.3,1.3-6.5c0.4-2.1,0.9-4.3,1.1-6.4c0.1-1.1,0.2-2.1,0.1-3.2c-0.1-0.5-0.1-1-0.3-1.5
				c-0.1-0.2-0.2-0.5-0.3-0.7l-0.4-0.7c-0.2-0.5-0.6-0.9-0.9-1.3c-0.4-0.4-0.7-0.8-1.1-1.1c-0.8-0.7-1.7-1.3-2.6-1.9
				c-0.9-0.5-1.9-1-2.9-1.4C139.1,54.5,138,54.2,137,53.7z"/>
			<path class="st0" d="M88.7,88.6c0,0,0.9,0.6,2.5,1.7c1.6,1.1,3.9,2.6,6.7,4.3c2.8,1.8,6,3.9,9.5,5.9c1.8,1,3.6,2.1,5.5,3
				c0.5,0.2,1,0.4,1.4,0.6c0.2,0.1,0.5,0.1,0.7,0.2c0.1,0,0.2,0,0.3,0c0.1,0-0.1,0-0.1,0l0,0l0.1,0l0.1,0c0.1,0,0.1,0,0.1,0
				c0.1,0,0.3-0.1,0.5-0.2c0.2-0.1,0.4-0.2,0.7-0.4c0.4-0.3,0.9-0.6,1.3-0.9c1.8-1.2,3.5-2.6,5.1-3.9c1.6-1.4,3.3-2.7,4.8-4.1
				c3-2.7,5.8-5.4,8-7.8c2.2-2.4,4-4.5,5.2-6c1.2-1.5,1.7-2.5,1.7-2.5s-0.1,0.2-0.4,0.7c-0.2,0.5-0.6,1.1-1.1,1.9
				c-0.5,0.8-1.2,1.8-1.9,2.9c-0.8,1.1-1.7,2.3-2.8,3.6c-2.1,2.6-4.7,5.4-7.7,8.3c-1.5,1.4-3.1,2.9-4.7,4.3
				c-1.7,1.4-3.4,2.8-5.2,4.1c-0.5,0.3-0.9,0.6-1.4,0.9c-0.2,0.1-0.5,0.3-0.8,0.4c-0.3,0.1-0.5,0.3-1,0.4c-0.1,0-0.2,0-0.2,0.1
				l-0.1,0l-0.1,0l0,0c0,0-0.2,0-0.1,0l-0.5-0.1c-0.3-0.1-0.6-0.1-0.9-0.2c-0.6-0.2-1.1-0.4-1.6-0.6c-2-0.9-3.8-2.1-5.6-3.2
				c-1.8-1.1-3.4-2.2-5-3.3c-1.6-1.1-3-2.1-4.3-3.1c-2.7-2-4.8-3.7-6.3-4.9C89.5,89.3,88.7,88.6,88.7,88.6z"/>
			<path class="st0" d="M133.1,65.4c-1.1,2.9-2.3,5.9-3.6,8.7c-1.3,2.9-2.7,5.7-4.4,8.4c-1.7,2.7-3.5,5.3-6,7.5
				c-1.2,1.1-2.7,2-4.4,2.4c-0.4,0.1-0.9,0.1-1.3,0.1l-1.2,0c-0.8,0-1.7-0.1-2.5-0.2c-1.6-0.2-3.2-0.7-4.7-1.4
				c-1.5-0.7-2.9-1.5-4.2-2.4c-1.3-0.9-2.6-1.9-3.8-2.8c-0.3-0.2-0.6-0.4-0.9-0.6l-1-0.6c-0.7-0.4-1.3-0.8-2-1.1
				c-0.7-0.3-1.3-0.5-1.9-0.5c-0.6,0-1.2,0.2-1.8,0.6c-1.2,0.7-2.3,1.9-3.4,3c-1.1,1.1-2.2,2.2-3.3,3.4c-0.5,0.6-1,1.1-1.4,1.7
				c-0.4,0.6-0.7,1.2-0.9,2l0-0.1c-0.3,1.8-0.4,3.6-0.5,5.4c0,0.9,0,1.8,0.1,2.7c0,0.4,0.1,0.9,0.2,1.2c0.1,0.4,0.3,0.7,0.5,0.7
				l-0.2,0c0.2,0,0.3-0.2,0.4-0.4c0.1-0.2,0.2-0.5,0.2-0.8c0.1-0.6,0.2-1.3,0.3-1.9c0.1-1.3,0.3-2.6,0.6-3.9c0.1-0.3,0.1-0.6,0.2-1
				c0.1-0.3,0.2-0.6,0.3-1c0.3-0.6,0.7-1.2,1.2-1.7c0.5-0.5,1.2-0.7,1.8-0.9c0.7-0.1,1.3-0.2,2-0.3c-0.6,0.1-1.3,0.2-1.9,0.4
				c-0.6,0.2-1.2,0.5-1.6,0.9c-0.5,0.4-0.8,1-1,1.6c-0.1,0.3-0.2,0.6-0.3,0.9c-0.1,0.3-0.1,0.6-0.2,1c-0.1,0.6-0.2,1.3-0.2,1.9
				c-0.1,0.7-0.1,1.3-0.1,2c0,0.7-0.1,1.3-0.2,2c0,0.3-0.1,0.7-0.3,1.1c-0.1,0.4-0.5,0.8-0.9,1l-0.1,0l-0.1,0
				c-0.4-0.1-0.7-0.3-0.9-0.6c-0.2-0.2-0.3-0.5-0.4-0.7c-0.2-0.5-0.3-1-0.3-1.4c-0.1-0.9-0.2-1.9-0.2-2.8c0-1.9,0.1-3.7,0.3-5.6l0,0
				l0-0.1c0.2-0.8,0.5-1.6,1-2.3c0.5-0.7,1-1.4,1.5-2c1.1-1.2,2.2-2.3,3.3-3.5c1.1-1.1,2.2-2.3,3.7-3.3c0.7-0.5,1.7-0.8,2.7-0.8
				c1,0,1.8,0.3,2.6,0.7c0.8,0.3,1.5,0.7,2.2,1.1l1,0.6c0.4,0.2,0.7,0.4,1,0.7c1.3,0.9,2.5,1.9,3.8,2.8c1.3,0.9,2.6,1.7,4,2.3
				c1.4,0.6,2.8,1,4.3,1.3c0.8,0.2,1.5,0.2,2.2,0.2l1.2,0c0.3,0,0.7,0,1-0.1c1.4-0.3,2.7-1,3.8-2c2.4-1.9,4.3-4.4,6-7
				c1.7-2.6,3.2-5.3,4.7-8.1C130.4,71.1,131.7,68.3,133.1,65.4z"/>
			<path class="st0" d="M110.2,71.6c0,0,0.2,0.2,0.5,0.6c0.2,0.2,0.4,0.5,0.6,0.8c0.2,0.3,0.4,0.7,0.6,1.1c0.4,0.9,0.7,1.9,1,3
				c0.1,0.6,0.2,1.2,0.3,1.8c0.1,0.6,0.1,1.2,0.2,1.8c0,0.6,0,1.2,0,1.8c0,0.6,0,1.2-0.1,1.8c0,1.1-0.2,2.2-0.3,3.1
				c-0.1,0.9-0.3,1.7-0.4,2.2c-0.1,0.5-0.2,0.8-0.2,0.8s-0.2-1.2-0.4-3c-0.1-0.9-0.1-2-0.2-3.1c-0.1-1.1-0.1-2.3-0.2-3.5
				c0-1.2-0.1-2.4-0.2-3.4c-0.1-0.5-0.1-1.1-0.2-1.6c-0.1-0.5-0.2-1-0.2-1.4c-0.1-0.4-0.2-0.8-0.3-1.2c-0.1-0.3-0.2-0.6-0.3-0.9
				C110.3,71.9,110.2,71.6,110.2,71.6z"/>
			<path class="st0" d="M116.5,56.9c0,0-0.1,0.1-0.3,0.3c-0.2,0.2-0.5,0.5-0.9,0.9c-0.8,0.7-2.2,1.5-4,2.1c-0.4,0.2-0.9,0.3-1.4,0.4
				c-0.2,0.1-0.5,0.1-0.7,0.2l-0.4,0.1l-0.1,0c0.1,0,0,0,0,0l-0.2,0.1c-0.5,0.2-1.1,0.3-1.4,0.6c-0.2,0.1-0.4,0.2-0.6,0.4l-0.5,0.5
				c-0.2,0.2-0.3,0.4-0.5,0.6c-0.1,0.2-0.3,0.4-0.4,0.6c-0.2,0.5-0.5,0.9-0.6,1.5l-0.3,0.8l-0.2,0.8c-0.1,0.6-0.2,1.1-0.3,1.7
				c-0.2,1.2-0.2,2.4-0.3,3.5c0,1.2-0.1,2.4-0.1,3.5c0,2.3,0,4.4,0,6.2c0,3.7-0.2,6.1-0.2,6.1s-0.4-2.4-0.8-6.1
				c-0.2-1.8-0.4-4-0.5-6.3c0-1.2-0.1-2.3-0.1-3.6c0-1.2,0.1-2.5,0.2-3.7c0.1-0.6,0.2-1.3,0.3-1.9l0.2-0.9l0.3-0.9
				c0.2-0.6,0.5-1.2,0.8-1.7c0.2-0.3,0.4-0.5,0.6-0.8c0.2-0.3,0.4-0.5,0.7-0.7c0.2-0.2,0.5-0.4,0.7-0.6c0.3-0.2,0.6-0.3,0.9-0.5
				c0.6-0.3,1.1-0.4,1.6-0.5l0.2-0.1l0.2,0l0.1,0l0.4-0.1c0.2,0,0.5-0.1,0.7-0.1c0.5-0.1,0.9-0.2,1.4-0.3c1.8-0.4,3.2-0.9,4.1-1.4
				C116,57.3,116.5,56.9,116.5,56.9z"/>
			<path class="st0" d="M116.4,52.5c0,0,0.1,0.2,0.3,0.5c0.1,0.2,0.2,0.3,0.3,0.5c0.1,0.2,0.3,0.4,0.5,0.7c0.4,0.5,0.8,1,1.2,1.6
				c0.5,0.6,1,1.2,1.5,1.8c1,1.2,2.1,2.4,2.9,3.3c0.4,0.4,0.8,0.8,1.1,1c0.3,0.2,0.5,0.3,0.5,0.3s-0.2,0-0.6-0.1
				c-0.4-0.1-0.9-0.3-1.5-0.6c-0.6-0.3-1.2-0.7-1.8-1.3c-0.6-0.5-1.2-1.1-1.7-1.8c-1.1-1.3-1.9-2.8-2.3-4c-0.2-0.6-0.3-1.2-0.3-1.5
				C116.4,52.7,116.4,52.5,116.4,52.5z"/>
			<path class="st0" d="M128.4,61.1c0,0,0.1-0.1,0.2-0.2c0.1-0.1,0.2-0.1,0.3-0.2c0.1-0.1,0.2-0.2,0.3-0.3c0.3-0.2,0.5-0.6,0.8-1
				c0.3-0.4,0.6-0.8,0.9-1.3c0.3-0.5,0.7-1.1,1-1.7c0.3-0.6,0.7-1.2,1-1.9c0.2-0.3,0.3-0.7,0.5-1c0.1-0.4,0.3-0.7,0.4-1.1
				c0.3-0.7,0.5-1.5,0.8-2.2c0.2-0.8,0.5-1.5,0.7-2.3c0.2-0.8,0.4-1.5,0.5-2.2c0.1-0.7,0.3-1.4,0.4-2.1c0.1-0.7,0.2-1.3,0.3-1.9
				c0.1-0.6,0.1-1.2,0.2-1.6c0-0.5,0.1-0.9,0.1-1.3c0.1-0.7,0.1-1.1,0.1-1.1s0.1,0.4,0.2,1.1c0.1,0.4,0.1,0.8,0.2,1.3
				c0,0.5,0.1,1.1,0.1,1.7c0.1,0.6,0,1.3,0,2c0,0.7-0.1,1.5-0.2,2.2c-0.1,0.8-0.3,1.6-0.4,2.4c-0.2,0.8-0.4,1.6-0.7,2.4
				c-0.3,0.8-0.6,1.6-0.9,2.3c-0.3,0.8-0.7,1.5-1.1,2.2c-0.4,0.7-0.8,1.3-1.2,1.9c-0.4,0.6-0.8,1.1-1.3,1.6
				c-0.4,0.5-0.8,0.9-1.2,1.2c-0.4,0.3-0.7,0.6-1.1,0.8c-0.3,0.2-0.6,0.3-0.7,0.4C128.5,61.1,128.4,61.1,128.4,61.1z"/>
			<path class="st0" d="M137.2,33.3c0,0,0-0.1-0.1-0.2c-0.1-0.2-0.1-0.4-0.3-0.7c-0.3-0.6-0.9-1.4-1.7-2.3c-0.8-0.9-1.9-1.9-3.3-2.8
				c-1.4-0.9-3.1-1.8-5.1-2.1c-1-0.1-1.9,0.1-3.1,0.3c-1.1,0.2-2.2,0.5-3.3,0.8c-2.2,0.8-4.2,2.2-6,4c-1.8,1.8-3.3,4.1-4.6,6.4
				c-1.4,2.3-2.4,4.8-3.1,7.5c-0.7,2.7-1.3,5.4-2.2,8.1c-0.8,2.7-2,5.3-3.5,7.5c-0.7,1.1-1.5,2.2-2.4,3.2c-0.4,0.5-0.9,0.9-1.3,1.4
				c-0.4,0.4-0.8,0.9-1.2,1.3c-1.3,1.8-2.1,4-2.3,6c-0.6,4.1,0.2,7.6,1.3,9.8c0.3,0.5,0.5,1,0.8,1.4c0.3,0.4,0.5,0.7,0.7,1
				c0.5,0.5,0.7,0.7,0.7,0.7s-0.3-0.2-0.8-0.7c-0.3-0.2-0.5-0.5-0.8-0.9c-0.3-0.4-0.6-0.8-0.9-1.4c-0.6-1.1-1.2-2.5-1.6-4.2
				c-0.4-1.7-0.6-3.7-0.4-5.8c0.2-2.2,0.9-4.5,2.3-6.6c0.4-0.5,0.7-0.9,1.2-1.5c0.4-0.5,0.8-0.9,1.2-1.4c0.7-1,1.5-2,2.2-3.1
				c1.3-2.2,2.4-4.6,3.2-7.2c0.8-2.6,1.4-5.3,2.1-8.1c0.7-2.7,1.8-5.5,3.3-7.9c1.4-2.4,3.1-4.7,5-6.6c1.9-2,4.2-3.4,6.7-4.1
				c1.2-0.4,2.4-0.6,3.5-0.7c1.1-0.2,2.3-0.4,3.4-0.2c2.2,0.4,4,1.5,5.3,2.5c1.4,1.1,2.4,2.1,3.2,3.1c0.8,1,1.3,1.8,1.5,2.4
				c0.2,0.3,0.2,0.5,0.3,0.7C137.2,33.2,137.2,33.3,137.2,33.3z"/>
			<path class="st0" d="M102.5,78.5c0,0,0,0.1,0,0.4c0,0.3,0,0.6,0,1c0,0.9,0,2.1-0.2,3.2c-0.1,0.6-0.3,1.2-0.6,1.7
				c-0.1,0.3-0.3,0.5-0.5,0.7c-0.1,0.2-0.3,0.4-0.5,0.6c-0.2,0.2-0.4,0.3-0.5,0.4c-0.1,0.1-0.3,0.2-0.4,0.2
				c-0.2,0.1-0.4,0.1-0.4,0.1s0.1-0.1,0.3-0.3c0.1-0.1,0.2-0.2,0.3-0.3c0.1-0.1,0.2-0.3,0.3-0.5c0.1-0.2,0.2-0.4,0.3-0.6
				c0.1-0.2,0.2-0.4,0.3-0.7c0.1-0.2,0.2-0.5,0.2-0.7c0.1-0.3,0.1-0.5,0.2-0.8c0.3-1.1,0.4-2.2,0.7-3.1c0.1-0.4,0.2-0.8,0.3-1
				C102.4,78.7,102.5,78.5,102.5,78.5z"/>
			<path class="st0" d="M99.1,84.7l-0.5-1.2c-0.1-0.4-0.2-0.8-0.3-1.2c0-0.4,0-0.9,0-1.3c0.1-0.4,0.2-0.9,0.4-1.3l0.3-0.6
				c0.1-0.2,0.2-0.4,0.3-0.5c0.2-0.4,0.5-0.7,0.8-1c0.6-0.7,1.1-1.2,1.7-1.8c0.6-0.6,1.2-1.2,1.7-1.8c0.3-0.3,0.5-0.6,0.8-0.9
				c0.3-0.3,0.5-0.6,0.8-0.9c0.5-0.6,0.9-1.3,1.3-2c0.4-0.7,0.7-1.4,1-2.2c0.3-0.7,0.5-1.5,0.7-2.3l0.8-2.4c0.5-1.6,1.1-3.2,1.8-4.7
				c0.7-1.5,1.5-3.1,2.4-4.5c0.5-0.7,1-1.4,1.6-2.1c0.3-0.3,0.6-0.6,0.9-1c0.3-0.3,0.7-0.6,1-0.9l0,0l0.1,0l2-1.1
				c0.3-0.2,0.7-0.4,1-0.6l1-0.6c0.3-0.2,0.6-0.4,0.9-0.6l0.9-0.6c0.6-0.5,1.2-0.9,1.7-1.4c0.3-0.3,0.6-0.5,0.8-0.8l0.8-0.8l0.7-0.9
				c0.2-0.3,0.4-0.6,0.6-0.9c0.2-0.3,0.3-0.7,0.4-1c0.1-0.3,0.2-0.7,0.3-1.1l0.2-1.1c0.1-0.4,0.2-0.8,0.4-1.1
				c-0.2,0.4-0.2,0.7-0.2,1.1c0,0.4,0,0.8-0.1,1.2c-0.1,0.4-0.1,0.8-0.2,1.2c-0.1,0.4-0.2,0.8-0.4,1.1c-0.1,0.4-0.3,0.7-0.5,1.1
				c-0.2,0.3-0.4,0.7-0.6,1c-0.2,0.3-0.5,0.6-0.7,0.9c-0.2,0.3-0.5,0.6-0.8,0.9c-0.5,0.6-1.1,1.1-1.7,1.6l-0.9,0.7
				c-0.3,0.2-0.6,0.5-0.9,0.7l-1,0.6c-0.3,0.2-0.6,0.4-1,0.6l-2,1.2l0.1-0.1c-0.3,0.3-0.6,0.5-0.9,0.8c-0.3,0.3-0.5,0.6-0.8,0.9
				c-0.5,0.6-1,1.3-1.4,1.9c-0.9,1.4-1.6,2.8-2.2,4.3c-0.3,0.8-0.6,1.5-0.9,2.3c-0.3,0.8-0.6,1.5-0.8,2.3l-0.8,2.4
				c-0.3,0.8-0.5,1.6-0.8,2.4c-0.3,0.8-0.7,1.6-1.1,2.4c-0.5,0.7-0.9,1.5-1.5,2.1c-0.3,0.3-0.6,0.7-0.9,1c-0.3,0.3-0.6,0.6-0.9,0.9
				c-0.6,0.6-1.2,1.1-1.9,1.7c-0.6,0.5-1.3,1.1-1.8,1.7c-0.3,0.3-0.6,0.6-0.8,0.9l-0.4,0.5L99.3,80c-0.2,0.3-0.3,0.7-0.5,1.1
				c-0.1,0.4-0.1,0.8-0.2,1.2c0,0.4,0,0.8,0.1,1.2L99.1,84.7z"/>
			<path class="st0" d="M129.2,37.5c0,0,0.2,0,0.5,0.2c0.1,0.1,0.3,0.1,0.5,0.2c0.2,0,0.4,0.1,0.6,0.2c0.9,0.3,2.2,0.5,3.4,0.8
				c1.3,0.3,2.5,0.7,3.5,1c1,0.3,1.6,0.7,1.6,0.7s-0.7,0.2-1.7,0.3c-1,0.1-2.4,0-3.8-0.3c-0.7-0.2-1.3-0.4-1.9-0.7
				c-0.3-0.1-0.6-0.3-0.8-0.5c-0.3-0.1-0.5-0.3-0.7-0.5c-0.2-0.1-0.4-0.4-0.6-0.5c-0.2-0.2-0.3-0.3-0.3-0.4
				C129.3,37.7,129.2,37.5,129.2,37.5z"/>
			<path class="st0" d="M123.1,56.6c0,0,0.5-0.2,1.1-0.2c0.6-0.1,1.4-0.2,2-0.3c0.2,0,0.3-0.1,0.5-0.1c0.1-0.1,0.3-0.1,0.5-0.2
				c0.3-0.1,0.6-0.3,0.9-0.4c0.3-0.1,0.5-0.2,0.7-0.3C128.9,55,129,55,129,55s0,0.1-0.1,0.3c0,0.2-0.1,0.5-0.3,0.8
				c-0.1,0.2-0.2,0.3-0.3,0.5c-0.1,0.2-0.3,0.3-0.5,0.5c-0.3,0.3-0.8,0.5-1.3,0.7c-1,0.2-2-0.1-2.5-0.4
				C123.4,56.9,123.1,56.6,123.1,56.6z"/>
			<path class="st0" d="M126,25.8c0,0,0.1,0.2,0.3,0.4c0.2,0.3,0.3,0.7,0.5,1.2c0.3,1,0.5,2.4,0.7,3.7c0.1,0.7,0.1,1.3,0.2,1.9
				c0.1,0.6,0.2,1.2,0.3,1.6c0.1,0.5,0.2,0.9,0.3,1.2c0.1,0.3,0.2,0.5,0.2,0.5s-0.2-0.1-0.4-0.3c-0.1-0.1-0.3-0.2-0.4-0.4
				c-0.2-0.2-0.3-0.4-0.5-0.6c-0.3-0.5-0.6-1.1-0.8-1.7c-0.2-0.7-0.3-1.4-0.4-2.1c-0.2-1.4,0-2.8,0.1-3.8c0-0.5,0.1-0.9,0.1-1.2
				C126,26,126,25.8,126,25.8z"/>
			<path class="st0" d="M136.9,32.6c0,0,0,0.1,0.1,0.2c0.1,0.1,0.2,0.3,0.4,0.6c0.3,0.5,0.6,1.3,1,2.3c0.3,1,0.7,2.2,0.9,3.4
				c0.1,0.6,0.2,1.3,0.3,2c0.1,0.7,0.1,1.4,0.2,2.1c0,0.7,0,1.4,0,2.1c0,0.7-0.1,1.4-0.2,2c-0.1,0.7-0.3,1.3-0.4,1.9
				c-0.2,0.6-0.4,1.1-0.6,1.6c-0.2,0.5-0.5,0.9-0.7,1.3c-0.2,0.4-0.5,0.7-0.7,0.9c-0.4,0.5-0.6,0.7-0.6,0.7s0.1-0.3,0.4-0.9
				c0.1-0.3,0.3-0.6,0.4-1c0.1-0.4,0.3-0.8,0.4-1.3c0.1-0.5,0.2-1,0.3-1.6c0.1-0.6,0.2-1.1,0.2-1.8c0.1-0.6,0.1-1.3,0.1-1.9
				c0-0.6,0-1.3,0-2c0-0.7-0.1-1.3-0.1-2c-0.1-0.7-0.1-1.3-0.2-1.9c-0.1-0.6-0.1-1.2-0.2-1.8c-0.1-0.6-0.2-1.1-0.2-1.6
				c-0.2-1-0.3-1.8-0.4-2.4C137,32.9,136.9,32.6,136.9,32.6z"/>
		</g>
	</g>
	<g>
		<path class="st1" d="M107.1,131.9c-0.6-0.5-0.9-1.3-0.9-2.2l-0.1-26.4c0-0.2,0-0.8,0-1.8c0-1-0.1-2-0.2-2.9s-0.3-1.6-0.5-2.2
			c2.1-0.3,5.9-0.4,11.2-0.4c5.1,0,9.1,1.5,11.8,4.6c2.7,3.1,4.1,7.6,4.1,13.6c0,12.3-5.2,18.5-15.5,18.5h-7.5
			C108.5,132.7,107.7,132.4,107.1,131.9z M116.7,130.4c3.3,0,5.7-1.2,7.2-3.7c1.5-2.4,2.3-6.5,2.3-12.2c0-5.7-0.8-9.8-2.3-12.4
			s-4-4-7.2-4h-4.8v32.2H116.7z"/>
		<path class="st1" d="M160,126.8c0,0.4-0.1,0.9-0.4,1.5c-0.7,1.6-1.8,2.9-3.5,3.7c-1.7,0.9-3.7,1.3-6.1,1.3c-4,0-7.1-1.2-9.3-3.6
			c-2.3-2.4-3.4-5.9-3.4-10.3c0-4.4,1.1-7.8,3.3-10.3c2.2-2.5,5.4-3.7,9.5-3.7c3,0,5.5,0.7,7.3,2c1.9,1.3,2.8,3.2,2.8,5.7
			c0,2.6-1,4.5-3.1,5.9c-2.1,1.4-4.9,2.1-8.4,2.1c-2,0-3.8-0.1-5.4-0.3c0.2,3.2,1.1,5.5,2.4,6.9c1.4,1.4,3.3,2.1,5.7,2.1
			c1.9,0,3.5-0.4,4.8-1.1c1.3-0.8,2.3-1.8,2.8-3.1C159.7,125.7,160,126.2,160,126.8z M145.2,110.3c-1.2,1.9-1.7,4.7-1.7,8.2
			c0.9,0.1,1.8,0.2,2.8,0.2c2.4,0,4.3-0.5,5.8-1.4c1.5-0.9,2.2-2.7,2.2-5.1c0-1.7-0.4-2.9-1.2-3.6c-0.8-0.7-1.8-1.1-3-1.1
			C147.9,107.5,146.3,108.4,145.2,110.3z"/>
		<path class="st1" d="M188,109c1.4,2.5,2.1,5.5,2.1,9.3c0,4.8-1,8.5-2.9,11.2c-2,2.6-4.7,3.9-8.2,3.9c-1.6,0-3-0.3-4.2-0.9
			c-1.1-0.6-2-1.5-2.4-2.6v4.2c0,3.7,0.3,6.6,0.9,8.8c-0.9,0.8-2,1.2-3.3,1.2c-0.9,0-1.7-0.3-2.3-0.8c-0.6-0.5-0.9-1.3-0.9-2.2
			l0.1-28.6c0-0.9-0.1-1.6-0.3-2c-0.2-0.4-0.6-0.6-1.1-0.6c-0.7,0-1.1,0.2-1.4,0.7c-0.5-0.7-0.7-1.3-0.7-2c0-0.9,0.3-1.6,1-2.2
			c0.7-0.6,1.6-0.9,2.7-0.9c3,0,4.7,2.3,4.9,6.8c1.7-4.6,4.7-7,8.9-7C184.3,105.3,186.6,106.6,188,109z M184.1,118.3
			c0-3.1-0.3-5.5-1-7.2c-0.7-1.7-1.9-2.6-3.7-2.6c-1.5,0-2.7,0.6-3.7,1.9c-1,1.2-1.8,2.9-2.3,4.9c-0.5,2-0.8,4.2-0.8,6.5
			c0,2.8,0.4,4.9,1.2,6.3c0.8,1.4,2.1,2.2,4,2.2C181.9,130.3,184.1,126.3,184.1,118.3z"/>
		<path class="st1" d="M196.6,101.1c-0.7-0.7-1-1.5-1-2.4c0-1,0.3-1.8,1-2.5c0.7-0.7,1.5-1,2.5-1c0.9,0,1.7,0.3,2.4,1
			c0.7,0.7,1,1.5,1,2.5c0,0.9-0.3,1.7-1,2.4c-0.7,0.7-1.5,1-2.4,1C198.1,102.1,197.2,101.8,196.6,101.1z M202.9,132.1
			c-1,0.9-2.1,1.3-3.3,1.3c-0.9,0-1.7-0.3-2.3-0.8c-0.6-0.5-0.9-1.3-0.9-2.2l-0.1-17.6c0-2.5-0.3-4.6-0.8-6.2c1-0.8,2.1-1.2,3.2-1.2
			c0.9,0,1.7,0.3,2.3,0.8c0.6,0.5,0.9,1.3,0.9,2.2l0.1,17.6C202.1,128.6,202.4,130.6,202.9,132.1z"/>
		<path class="st1" d="M208.7,104c1.2-1.4,1.8-2.6,1.8-3.8c0-1-0.3-1.8-0.8-2.2c-0.6-0.4-1.3-0.8-2.1-1c0-0.9,0.3-1.8,1-2.4
			c0.7-0.7,1.5-1,2.5-1c1,0,1.8,0.3,2.5,1c0.7,0.7,1,1.8,1,3.3c0,2.5-1.3,5-4,7.3C210,105,209.3,104.6,208.7,104z"/>
		<path class="st0" d="M241.9,116.3c1.5,1.6,2.2,3.7,2.2,6.3c0,3.5-1.3,6-3.8,7.6c-2.5,1.6-6.2,2.4-11,2.4H224c-1,0-1.8-0.3-2.4-0.8
			c-0.6-0.5-0.9-1.3-0.9-2.2v-26.3c0-0.9-0.1-2-0.2-3.1c-0.1-1.2-0.4-2.2-0.7-3c1.9-0.9,4.8-1.4,8.6-1.4c4.6,0,8,0.7,10.4,2.1
			c2.4,1.4,3.5,3.6,3.5,6.7c0,2.2-0.6,4-1.7,5.5c-1.1,1.5-2.8,2.6-4.8,3.2C238.4,113.7,240.4,114.7,241.9,116.3z M226.4,98v14.5h3.3
			c2.1,0,3.7-0.6,4.8-2c1.1-1.3,1.7-3.2,1.7-5.5c0-2.3-0.6-4.1-1.8-5.3c-1.2-1.2-3.3-1.8-6.1-1.8C227.4,98,226.7,98,226.4,98z
			 M237.9,122.7c0-3-0.7-5.1-2.2-6.3c-1.5-1.2-3.6-1.7-6.3-1.7h-3v15.8h2.9C235,130.4,237.9,127.9,237.9,122.7z"/>
		<path class="st0" d="M271.4,126.8c0,0.4-0.1,0.9-0.4,1.5c-0.7,1.6-1.8,2.9-3.5,3.7c-1.7,0.9-3.7,1.3-6.1,1.3c-4,0-7.1-1.2-9.3-3.6
			c-2.3-2.4-3.4-5.9-3.4-10.3c0-4.4,1.1-7.8,3.3-10.3c2.2-2.5,5.4-3.7,9.5-3.7c3,0,5.5,0.7,7.3,2c1.9,1.3,2.8,3.2,2.8,5.7
			c0,2.6-1,4.5-3.1,5.9c-2.1,1.4-4.9,2.1-8.4,2.1c-2,0-3.8-0.1-5.4-0.3c0.2,3.2,1.1,5.5,2.4,6.9c1.4,1.4,3.3,2.1,5.7,2.1
			c1.9,0,3.5-0.4,4.8-1.1c1.3-0.8,2.3-1.8,2.8-3.1C271.1,125.7,271.4,126.2,271.4,126.8z M256.6,110.3c-1.2,1.9-1.7,4.7-1.7,8.2
			c0.9,0.1,1.8,0.2,2.8,0.2c2.4,0,4.3-0.5,5.8-1.4c1.5-0.9,2.2-2.7,2.2-5.1c0-1.7-0.4-2.9-1.2-3.6c-0.8-0.7-1.8-1.1-3-1.1
			C259.3,107.5,257.7,108.4,256.6,110.3z"/>
		<path class="st0" d="M278.9,131.5c-1-1.2-1.5-2.8-1.5-4.9v-29c0-0.9,0.3-1.7,0.9-2.2c0.6-0.5,1.4-0.8,2.4-0.8
			c1.3,0,2.4,0.4,3.2,1.3c-0.3,1.2-0.6,2.6-0.7,4s-0.2,3.5-0.2,6.1v20.1c0,1.8,0.6,2.8,1.9,2.8c0.3,0,0.7-0.1,1-0.2
			c0.3-0.1,0.6-0.3,0.7-0.6c0.5,0.6,0.7,1.2,0.7,1.9c0,0.9-0.4,1.7-1.2,2.3c-0.8,0.6-1.8,0.9-3,0.9
			C281.3,133.2,279.9,132.6,278.9,131.5z"/>
		<path class="st0" d="M293.6,131.5c-1-1.2-1.5-2.8-1.5-4.9v-29c0-0.9,0.3-1.7,0.9-2.2c0.6-0.5,1.4-0.8,2.4-0.8
			c1.3,0,2.4,0.4,3.2,1.3c-0.3,1.2-0.6,2.6-0.7,4s-0.2,3.5-0.2,6.1v20.1c0,1.8,0.6,2.8,1.9,2.8c0.3,0,0.7-0.1,1-0.2
			c0.3-0.1,0.6-0.3,0.7-0.6c0.5,0.6,0.7,1.2,0.7,1.9c0,0.9-0.4,1.7-1.2,2.3c-0.8,0.6-1.8,0.9-3,0.9
			C296,133.2,294.6,132.6,293.6,131.5z"/>
		<path class="st0" d="M327.7,126.8c0,0.4-0.1,0.9-0.4,1.5c-0.7,1.6-1.8,2.9-3.5,3.7c-1.7,0.9-3.7,1.3-6.1,1.3c-4,0-7.1-1.2-9.3-3.6
			c-2.3-2.4-3.4-5.9-3.4-10.3c0-4.4,1.1-7.8,3.3-10.3c2.2-2.5,5.4-3.7,9.5-3.7c3,0,5.5,0.7,7.3,2c1.9,1.3,2.8,3.2,2.8,5.7
			c0,2.6-1,4.5-3.1,5.9c-2.1,1.4-4.9,2.1-8.4,2.1c-2,0-3.8-0.1-5.4-0.3c0.2,3.2,1.1,5.5,2.4,6.9c1.4,1.4,3.3,2.1,5.7,2.1
			c1.9,0,3.5-0.4,4.8-1.1c1.3-0.8,2.3-1.8,2.8-3.1C327.4,125.7,327.7,126.2,327.7,126.8z M312.9,110.3c-1.2,1.9-1.7,4.7-1.7,8.2
			c0.9,0.1,1.8,0.2,2.8,0.2c2.4,0,4.3-0.5,5.8-1.4c1.5-0.9,2.2-2.7,2.2-5.1c0-1.7-0.4-2.9-1.2-3.6c-0.8-0.7-1.8-1.1-3-1.1
			C315.6,107.5,314,108.4,312.9,110.3z"/>
	</g>
	<g>
		<path class="st2" d="M167.5,154.8c-0.1-0.1-0.2-0.2-0.2-0.4l0-5.1c0,0,0-0.2,0-0.4c0-0.2,0-0.4,0-0.6c0-0.2,0-0.3-0.1-0.4
			c0.4-0.1,1.1-0.1,2.2-0.1c1,0,1.7,0.3,2.3,0.9s0.8,1.5,0.8,2.6c0,2.4-1,3.5-3,3.5h-1.5C167.7,155,167.6,154.9,167.5,154.8z
			 M169.3,154.5c0.6,0,1.1-0.2,1.4-0.7c0.3-0.5,0.4-1.3,0.4-2.3c0-1.1-0.2-1.9-0.5-2.4s-0.8-0.8-1.4-0.8h-0.9v6.2H169.3z"/>
		<path class="st2" d="M177.6,153.8c0,0.1,0,0.2-0.1,0.3c-0.1,0.3-0.4,0.6-0.7,0.7c-0.3,0.2-0.7,0.3-1.2,0.3c-0.8,0-1.4-0.2-1.8-0.7
			c-0.4-0.5-0.7-1.1-0.7-2c0-0.8,0.2-1.5,0.6-2c0.4-0.5,1-0.7,1.8-0.7c0.6,0,1.1,0.1,1.4,0.4s0.5,0.6,0.5,1.1c0,0.5-0.2,0.9-0.6,1.1
			c-0.4,0.3-0.9,0.4-1.6,0.4c-0.4,0-0.7,0-1,0c0,0.6,0.2,1.1,0.5,1.3s0.6,0.4,1.1,0.4c0.4,0,0.7-0.1,0.9-0.2
			c0.3-0.1,0.4-0.3,0.5-0.6C177.6,153.6,177.6,153.7,177.6,153.8z M174.8,150.7c-0.2,0.4-0.3,0.9-0.3,1.6c0.2,0,0.4,0,0.5,0
			c0.5,0,0.8-0.1,1.1-0.3c0.3-0.2,0.4-0.5,0.4-1c0-0.3-0.1-0.6-0.2-0.7s-0.3-0.2-0.6-0.2C175.3,150.1,175,150.3,174.8,150.7z"/>
		<path class="st2" d="M183,150.4c0.3,0.5,0.4,1.1,0.4,1.8c0,0.9-0.2,1.6-0.6,2.1c-0.4,0.5-0.9,0.8-1.6,0.8c-0.3,0-0.6-0.1-0.8-0.2
			c-0.2-0.1-0.4-0.3-0.5-0.5v0.8c0,0.7,0.1,1.3,0.2,1.7c-0.2,0.2-0.4,0.2-0.6,0.2c-0.2,0-0.3-0.1-0.5-0.2c-0.1-0.1-0.2-0.2-0.2-0.4
			l0-5.5c0-0.2,0-0.3-0.1-0.4c0-0.1-0.1-0.1-0.2-0.1c-0.1,0-0.2,0-0.3,0.1c-0.1-0.1-0.1-0.3-0.1-0.4c0-0.2,0.1-0.3,0.2-0.4
			c0.1-0.1,0.3-0.2,0.5-0.2c0.6,0,0.9,0.4,1,1.3c0.3-0.9,0.9-1.3,1.7-1.3C182.3,149.7,182.8,149.9,183,150.4z M182.3,152.2
			c0-0.6-0.1-1.1-0.2-1.4c-0.1-0.3-0.4-0.5-0.7-0.5c-0.3,0-0.5,0.1-0.7,0.4c-0.2,0.2-0.3,0.6-0.4,1s-0.1,0.8-0.1,1.3
			c0,0.5,0.1,0.9,0.2,1.2c0.2,0.3,0.4,0.4,0.8,0.4C181.8,154.5,182.3,153.7,182.3,152.2z"/>
		<path class="st2" d="M184.7,148.9c-0.1-0.1-0.2-0.3-0.2-0.5c0-0.2,0.1-0.3,0.2-0.5c0.1-0.1,0.3-0.2,0.5-0.2c0.2,0,0.3,0.1,0.5,0.2
			c0.1,0.1,0.2,0.3,0.2,0.5c0,0.2-0.1,0.3-0.2,0.5c-0.1,0.1-0.3,0.2-0.5,0.2C185,149.1,184.8,149,184.7,148.9z M185.9,154.8
			c-0.2,0.2-0.4,0.3-0.6,0.3c-0.2,0-0.3-0.1-0.4-0.2c-0.1-0.1-0.2-0.2-0.2-0.4l0-3.4c0-0.5-0.1-0.9-0.2-1.2c0.2-0.2,0.4-0.2,0.6-0.2
			c0.2,0,0.3,0.1,0.4,0.2s0.2,0.2,0.2,0.4l0,3.4C185.7,154.2,185.8,154.6,185.9,154.8z"/>
		<path class="st2" d="M187.5,154.7c-0.2-0.2-0.3-0.5-0.3-0.9v-5.6c0-0.2,0.1-0.3,0.2-0.4s0.3-0.2,0.5-0.2c0.2,0,0.5,0.1,0.6,0.3
			c-0.1,0.2-0.1,0.5-0.1,0.8s0,0.7,0,1.2v3.9c0,0.4,0.1,0.5,0.4,0.5c0.1,0,0.1,0,0.2,0c0.1,0,0.1-0.1,0.1-0.1
			c0.1,0.1,0.1,0.2,0.1,0.4c0,0.2-0.1,0.3-0.2,0.4c-0.2,0.1-0.4,0.2-0.6,0.2C188,155.1,187.7,154.9,187.5,154.7z"/>
		<path class="st2" d="M194.8,154.4c0,0.2-0.1,0.3-0.2,0.4s-0.3,0.2-0.6,0.2c-0.3,0-0.6-0.1-0.7-0.3c-0.2-0.2-0.3-0.6-0.3-1.1
			c-0.2,0.4-0.5,0.8-0.8,1c-0.3,0.3-0.7,0.4-1.2,0.4c-0.4,0-0.7-0.1-0.9-0.3c-0.2-0.2-0.4-0.5-0.4-0.9c0-0.4,0.2-0.8,0.5-1
			c0.3-0.3,0.7-0.5,1.2-0.6c0.5-0.1,1-0.2,1.5-0.2v-0.3c0-0.6-0.1-1-0.2-1.3c-0.2-0.3-0.4-0.4-0.8-0.4c-0.3,0-0.5,0.1-0.6,0.2
			c-0.2,0.1-0.2,0.3-0.2,0.6c0,0.2,0,0.3,0.1,0.4c0.1,0.1,0.2,0.2,0.3,0.3c-0.1,0.1-0.2,0.1-0.3,0.2c-0.1,0-0.2,0.1-0.3,0.1
			c-0.3,0-0.5-0.1-0.6-0.3c-0.2-0.2-0.2-0.4-0.2-0.6c0-0.4,0.2-0.7,0.5-0.9s0.9-0.3,1.5-0.3c0.7,0,1.2,0.2,1.6,0.5
			c0.3,0.3,0.5,0.9,0.5,1.6v1.8c0,0.4,0.1,0.5,0.3,0.5c0.1,0,0.1,0,0.2,0c0.1,0,0.1-0.1,0.1-0.1
			C194.8,154.2,194.8,154.3,194.8,154.4z M192.2,154.1c0.2-0.2,0.4-0.4,0.6-0.7c0.2-0.3,0.2-0.6,0.2-0.9c-0.2,0-0.5,0-0.7,0
			c-0.2,0-0.4,0.1-0.6,0.2c-0.2,0.1-0.4,0.2-0.5,0.4c-0.1,0.2-0.2,0.4-0.2,0.6c0,0.2,0,0.4,0.1,0.5c0.1,0.1,0.2,0.2,0.4,0.2
			C191.7,154.3,191.9,154.2,192.2,154.1z"/>
		<path class="st2" d="M195.9,154.4c-0.4-0.5-0.6-1.1-0.6-2c0-0.8,0.2-1.5,0.6-2c0.4-0.5,1-0.7,1.8-0.7c0.6,0,1,0.1,1.3,0.4
			c0.3,0.2,0.5,0.5,0.5,0.9c0,0.3-0.1,0.5-0.2,0.6c-0.1,0.2-0.3,0.2-0.6,0.2c-0.1,0-0.2,0-0.3-0.1c-0.1,0-0.2-0.1-0.3-0.2
			c0.2-0.1,0.3-0.4,0.3-0.7c0-0.3-0.1-0.5-0.2-0.6c-0.1-0.1-0.3-0.2-0.6-0.2c-0.4,0-0.7,0.2-0.9,0.6c-0.2,0.4-0.3,0.9-0.3,1.6
			c0,0.7,0.1,1.3,0.4,1.6s0.7,0.5,1.2,0.5c0.4,0,0.7-0.1,0.9-0.3c0.3-0.2,0.4-0.4,0.5-0.7c0.1,0,0.2,0.1,0.2,0.3c0,0.1,0,0.2,0,0.3
			c-0.1,0.4-0.3,0.6-0.6,0.8c-0.3,0.2-0.7,0.3-1.2,0.3C196.9,155.1,196.3,154.9,195.9,154.4z"/>
		<path class="st2" d="M200.8,148.9c-0.1-0.1-0.2-0.3-0.2-0.5c0-0.2,0.1-0.3,0.2-0.5c0.1-0.1,0.3-0.2,0.5-0.2c0.2,0,0.3,0.1,0.5,0.2
			c0.1,0.1,0.2,0.3,0.2,0.5c0,0.2-0.1,0.3-0.2,0.5c-0.1,0.1-0.3,0.2-0.5,0.2C201.1,149.1,201,149,200.8,148.9z M202.1,154.8
			c-0.2,0.2-0.4,0.3-0.6,0.3c-0.2,0-0.3-0.1-0.4-0.2c-0.1-0.1-0.2-0.2-0.2-0.4l0-3.4c0-0.5-0.1-0.9-0.2-1.2c0.2-0.2,0.4-0.2,0.6-0.2
			c0.2,0,0.3,0.1,0.4,0.2s0.2,0.2,0.2,0.4l0,3.4C201.9,154.2,202,154.6,202.1,154.8z"/>
		<path class="st2" d="M203.7,154.4c-0.4-0.5-0.6-1.1-0.6-2c0-0.9,0.2-1.5,0.6-2s1-0.7,1.8-0.7c0.8,0,1.3,0.2,1.8,0.7
			c0.4,0.5,0.6,1.1,0.6,2c0,0.8-0.2,1.5-0.6,2c-0.4,0.5-1,0.7-1.8,0.7S204.1,154.8,203.7,154.4z M206.3,154.1c0.2-0.4,0.3-1,0.3-1.7
			c0-0.8-0.1-1.3-0.3-1.7c-0.2-0.4-0.5-0.6-0.9-0.6s-0.7,0.2-0.9,0.6c-0.2,0.4-0.3,1-0.3,1.7c0,0.7,0.1,1.3,0.3,1.7
			c0.2,0.4,0.5,0.6,0.9,0.6S206.1,154.5,206.3,154.1z M205.5,149.3c-0.2,0-0.4,0-0.4-0.1l0.9-1.5c0.1,0,0.3,0,0.6,0.1
			s0.4,0.1,0.4,0.2L205.5,149.3z"/>
		<path class="st2" d="M213.5,154.8c-0.2,0.2-0.4,0.3-0.6,0.3c-0.2,0-0.3-0.1-0.5-0.2c-0.1-0.1-0.2-0.2-0.2-0.4v-2.6
			c0-0.6-0.1-1-0.2-1.2c-0.1-0.3-0.3-0.4-0.7-0.4c-0.2,0-0.4,0.1-0.6,0.3c-0.2,0.2-0.3,0.4-0.4,0.8c-0.1,0.3-0.2,0.8-0.2,1.3
			c0,0.8,0,1.3,0,1.6c0,0.3,0.1,0.5,0.2,0.7c-0.1,0.1-0.2,0.1-0.3,0.2c-0.1,0.1-0.2,0.1-0.4,0.1c-0.2,0-0.3-0.1-0.5-0.2
			s-0.2-0.3-0.2-0.5V151c0-0.2,0-0.3-0.1-0.4c0-0.1-0.1-0.1-0.2-0.1c-0.1,0-0.2,0-0.3,0.1c-0.1-0.1-0.1-0.3-0.1-0.4
			c0-0.2,0.1-0.3,0.2-0.4c0.1-0.1,0.3-0.2,0.5-0.2c0.3,0,0.5,0.1,0.7,0.3s0.2,0.5,0.2,0.9v0c0.1-0.4,0.3-0.7,0.6-0.9
			s0.6-0.3,1.1-0.3c0.5,0,1,0.2,1.2,0.5c0.3,0.3,0.4,0.8,0.4,1.5v1.9C213.3,154.2,213.4,154.6,213.5,154.8z"/>
		<path class="st2" d="M217.3,154.9c-0.1-0.1-0.2-0.2-0.2-0.4l0-5.2c0-0.5-0.1-0.9-0.2-1.2c0.1-0.1,0.2-0.1,0.3-0.2
			c0.1,0,0.2-0.1,0.4-0.1c0.2,0,0.3,0.1,0.5,0.2s0.2,0.2,0.2,0.4v5.2c0,0.5,0.1,0.9,0.2,1.2c-0.2,0.2-0.4,0.3-0.6,0.3
			C217.5,155.1,217.4,155,217.3,154.9z"/>
		<path class="st2" d="M224.4,154.8c-0.2,0.2-0.4,0.3-0.6,0.3c-0.2,0-0.3-0.1-0.5-0.2c-0.1-0.1-0.2-0.2-0.2-0.4v-2.6
			c0-0.6-0.1-1-0.2-1.2c-0.1-0.3-0.3-0.4-0.7-0.4c-0.2,0-0.4,0.1-0.6,0.3c-0.2,0.2-0.3,0.4-0.4,0.8c-0.1,0.3-0.2,0.8-0.2,1.3
			c0,0.8,0,1.3,0,1.6c0,0.3,0.1,0.5,0.2,0.7c-0.1,0.1-0.2,0.1-0.3,0.2c-0.1,0.1-0.2,0.1-0.4,0.1c-0.2,0-0.3-0.1-0.5-0.2
			s-0.2-0.3-0.2-0.5V151c0-0.2,0-0.3-0.1-0.4c0-0.1-0.1-0.1-0.2-0.1c-0.1,0-0.2,0-0.3,0.1c-0.1-0.1-0.1-0.3-0.1-0.4
			c0-0.2,0.1-0.3,0.2-0.4c0.1-0.1,0.3-0.2,0.5-0.2c0.3,0,0.5,0.1,0.7,0.3s0.2,0.5,0.2,0.9v0c0.1-0.4,0.3-0.7,0.6-0.9
			s0.6-0.3,1.1-0.3c0.5,0,1,0.2,1.2,0.5c0.3,0.3,0.4,0.8,0.4,1.5v1.9C224.2,154.2,224.3,154.6,224.4,154.8z"/>
		<path class="st2" d="M227.6,149.8c0.2,0,0.4,0,0.5,0l0,0.3c0,0.1,0,0.2-0.1,0.2c-0.1,0-0.1,0.1-0.2,0.1h-0.9v0.3l0,3
			c0,0.4,0.2,0.5,0.5,0.5c0.1,0,0.2,0,0.3,0c0.1,0,0.1-0.1,0.2-0.1c0.1,0.1,0.1,0.3,0.1,0.4c0,0.2-0.1,0.3-0.3,0.5
			c-0.2,0.1-0.4,0.2-0.7,0.2c-0.4,0-0.6-0.1-0.8-0.3c-0.2-0.2-0.3-0.5-0.3-0.9v-3.4h-0.1c-0.1,0-0.2,0-0.3,0s-0.2,0-0.3,0l0-0.3
			c0-0.1,0-0.2,0.1-0.2c0.1,0,0.1-0.1,0.2-0.1h0.4v-0.8c0-0.2,0.1-0.3,0.2-0.4s0.3-0.2,0.5-0.2c0.2,0,0.4,0.1,0.6,0.2
			c-0.1,0.3-0.1,0.7-0.1,1.1h0.2C227.2,149.8,227.3,149.8,227.6,149.8z"/>
		<path class="st2" d="M233.1,153.8c0,0.1,0,0.2-0.1,0.3c-0.1,0.3-0.4,0.6-0.7,0.7c-0.3,0.2-0.7,0.3-1.2,0.3c-0.8,0-1.4-0.2-1.8-0.7
			c-0.4-0.5-0.7-1.1-0.7-2c0-0.8,0.2-1.5,0.6-2c0.4-0.5,1-0.7,1.8-0.7c0.6,0,1.1,0.1,1.4,0.4s0.5,0.6,0.5,1.1c0,0.5-0.2,0.9-0.6,1.1
			c-0.4,0.3-0.9,0.4-1.6,0.4c-0.4,0-0.7,0-1,0c0,0.6,0.2,1.1,0.5,1.3s0.6,0.4,1.1,0.4c0.4,0,0.7-0.1,0.9-0.2
			c0.3-0.1,0.4-0.3,0.5-0.6C233.1,153.6,233.1,153.7,233.1,153.8z M230.3,150.7c-0.2,0.4-0.3,0.9-0.3,1.6c0.2,0,0.4,0,0.5,0
			c0.5,0,0.8-0.1,1.1-0.3c0.3-0.2,0.4-0.5,0.4-1c0-0.3-0.1-0.6-0.2-0.7s-0.3-0.2-0.6-0.2C230.8,150.1,230.5,150.3,230.3,150.7z"/>
		<path class="st2" d="M234.5,156.9c-0.3-0.2-0.5-0.5-0.5-0.9c0-0.2,0.1-0.4,0.2-0.6s0.3-0.2,0.6-0.2c0.2,0,0.4,0.1,0.5,0.2
			c-0.2,0.2-0.3,0.4-0.3,0.7c0,0.2,0.1,0.4,0.2,0.5c0.1,0.1,0.3,0.2,0.6,0.2c0.5,0,0.9-0.2,1.1-0.6c0.2-0.4,0.4-1,0.4-1.7v-0.7
			c-0.1,0.3-0.3,0.6-0.6,0.8c-0.3,0.2-0.6,0.3-1,0.3c-0.6,0-1-0.2-1.3-0.6c-0.3-0.4-0.5-1-0.5-1.9c0-0.8,0.2-1.5,0.5-2
			s1-0.8,1.8-0.8c0.4,0,0.8,0.1,1.2,0.2s0.7,0.3,0.9,0.5v4.1c0,1.8-0.9,2.7-2.6,2.7C235.3,157.2,234.8,157.1,234.5,156.9z
			 M237,153.9c0.2-0.4,0.3-0.8,0.3-1.4l0-2.1c-0.1-0.1-0.2-0.2-0.4-0.2c-0.2,0-0.3-0.1-0.5-0.1c-0.5,0-0.8,0.2-1,0.6s-0.3,1-0.3,1.8
			c0,0.7,0.1,1.1,0.2,1.4c0.1,0.3,0.4,0.4,0.7,0.4C236.4,154.4,236.7,154.2,237,153.9z"/>
		<path class="st2" d="M243,150c0.2,0.2,0.3,0.5,0.3,0.8c0,0.3-0.1,0.5-0.2,0.6s-0.3,0.2-0.5,0.2c-0.2,0-0.4-0.1-0.5-0.2
			c0.1-0.1,0.1-0.2,0.1-0.3c0-0.1,0-0.2,0-0.3c0-0.4-0.2-0.6-0.5-0.6c-0.3,0-0.5,0.2-0.6,0.6c-0.2,0.4-0.2,1-0.2,1.8v0.4
			c0,0.6,0,1,0,1.2c0,0.2,0.1,0.4,0.1,0.6c-0.1,0.1-0.2,0.1-0.3,0.2c-0.1,0-0.2,0.1-0.4,0.1c-0.2,0-0.3-0.1-0.5-0.2
			s-0.2-0.3-0.2-0.5V151c0-0.2,0-0.3-0.1-0.4c0-0.1-0.1-0.1-0.2-0.1c-0.1,0-0.2,0-0.3,0.1c-0.1-0.1-0.1-0.3-0.1-0.4
			c0-0.2,0.1-0.3,0.2-0.4c0.1-0.1,0.3-0.2,0.5-0.2c0.3,0,0.5,0.1,0.6,0.3c0.2,0.2,0.2,0.5,0.3,0.8c0.2-0.7,0.7-1.1,1.3-1.1
			C242.5,149.7,242.8,149.8,243,150z"/>
		<path class="st2" d="M249,154.4c0,0.2-0.1,0.3-0.2,0.4s-0.3,0.2-0.6,0.2c-0.3,0-0.6-0.1-0.7-0.3c-0.2-0.2-0.3-0.6-0.3-1.1
			c-0.2,0.4-0.5,0.8-0.8,1c-0.3,0.3-0.7,0.4-1.2,0.4c-0.4,0-0.7-0.1-0.9-0.3c-0.2-0.2-0.4-0.5-0.4-0.9c0-0.4,0.2-0.8,0.5-1
			c0.3-0.3,0.7-0.5,1.2-0.6c0.5-0.1,1-0.2,1.5-0.2v-0.3c0-0.6-0.1-1-0.2-1.3c-0.2-0.3-0.4-0.4-0.8-0.4c-0.3,0-0.5,0.1-0.6,0.2
			c-0.2,0.1-0.2,0.3-0.2,0.6c0,0.2,0,0.3,0.1,0.4c0.1,0.1,0.2,0.2,0.3,0.3c-0.1,0.1-0.2,0.1-0.3,0.2c-0.1,0-0.2,0.1-0.3,0.1
			c-0.3,0-0.5-0.1-0.6-0.3c-0.2-0.2-0.2-0.4-0.2-0.6c0-0.4,0.2-0.7,0.5-0.9s0.9-0.3,1.5-0.3c0.7,0,1.2,0.2,1.6,0.5
			c0.3,0.3,0.5,0.9,0.5,1.6v1.8c0,0.4,0.1,0.5,0.3,0.5c0.1,0,0.1,0,0.2,0c0.1,0,0.1-0.1,0.1-0.1C249,154.2,249,154.3,249,154.4z
			 M246.4,154.1c0.2-0.2,0.4-0.4,0.6-0.7c0.2-0.3,0.2-0.6,0.2-0.9c-0.2,0-0.5,0-0.7,0c-0.2,0-0.4,0.1-0.6,0.2
			c-0.2,0.1-0.4,0.2-0.5,0.4c-0.1,0.2-0.2,0.4-0.2,0.6c0,0.2,0,0.4,0.1,0.5c0.1,0.1,0.2,0.2,0.4,0.2
			C245.9,154.3,246.2,154.2,246.4,154.1z"/>
		<path class="st2" d="M250.1,154.7c-0.2-0.2-0.3-0.5-0.3-0.9v-5.6c0-0.2,0.1-0.3,0.2-0.4s0.3-0.2,0.5-0.2c0.2,0,0.5,0.1,0.6,0.3
			c-0.1,0.2-0.1,0.5-0.1,0.8s0,0.7,0,1.2v3.9c0,0.4,0.1,0.5,0.4,0.5c0.1,0,0.1,0,0.2,0c0.1,0,0.1-0.1,0.1-0.1
			c0.1,0.1,0.1,0.2,0.1,0.4c0,0.2-0.1,0.3-0.2,0.4c-0.2,0.1-0.4,0.2-0.6,0.2C250.6,155.1,250.3,154.9,250.1,154.7z"/>
		<path class="st2" d="M255.1,154.7c-0.4-0.3-0.6-0.6-0.6-1c0-0.2,0.1-0.4,0.2-0.5s0.3-0.2,0.5-0.2c0,0,0.1,0,0.2,0
			c0,0.1,0,0.1,0,0.2c0,0,0,0.1,0,0.3c0,0.3,0.2,0.6,0.5,0.9c0.3,0.2,0.6,0.3,1.1,0.3c0.4,0,0.7-0.1,0.9-0.3
			c0.2-0.2,0.4-0.5,0.4-0.8c0-0.2-0.1-0.4-0.2-0.6c-0.1-0.2-0.3-0.3-0.5-0.5c-0.2-0.1-0.5-0.3-0.8-0.5c-0.5-0.3-0.9-0.5-1.1-0.7
			s-0.5-0.4-0.6-0.7c-0.2-0.3-0.2-0.6-0.2-0.9c0-0.6,0.2-1,0.6-1.3c0.4-0.3,1-0.4,1.6-0.4c0.6,0,1.1,0.1,1.5,0.3
			c0.4,0.2,0.6,0.5,0.6,0.9c0,0.3-0.2,0.5-0.6,0.5c0,0-0.1,0-0.1,0s-0.1,0-0.2,0c0,0,0-0.1,0-0.1c0-0.2,0-0.3-0.1-0.4
			c0-0.2-0.2-0.4-0.4-0.6c-0.2-0.1-0.5-0.2-0.9-0.2c-0.3,0-0.6,0.1-0.8,0.2c-0.2,0.1-0.3,0.4-0.3,0.7c0,0.3,0.1,0.6,0.3,0.8
			c0.2,0.2,0.6,0.5,1.2,0.8c0.4,0.2,0.7,0.4,1,0.6c0.3,0.2,0.5,0.4,0.7,0.7s0.3,0.6,0.3,1c0,0.3-0.1,0.7-0.3,1
			c-0.2,0.3-0.5,0.5-0.8,0.7c-0.4,0.2-0.8,0.3-1.4,0.3C256.1,155.1,255.5,155,255.1,154.7z"/>
		<path class="st2" d="M260.6,148.9c-0.1-0.1-0.2-0.3-0.2-0.5c0-0.2,0.1-0.3,0.2-0.5c0.1-0.1,0.3-0.2,0.5-0.2c0.2,0,0.3,0.1,0.5,0.2
			c0.1,0.1,0.2,0.3,0.2,0.5c0,0.2-0.1,0.3-0.2,0.5c-0.1,0.1-0.3,0.2-0.5,0.2C260.8,149.1,260.7,149,260.6,148.9z M261.8,154.8
			c-0.2,0.2-0.4,0.3-0.6,0.3c-0.2,0-0.3-0.1-0.4-0.2c-0.1-0.1-0.2-0.2-0.2-0.4l0-3.4c0-0.5-0.1-0.9-0.2-1.2c0.2-0.2,0.4-0.2,0.6-0.2
			c0.2,0,0.3,0.1,0.4,0.2s0.2,0.2,0.2,0.4l0,3.4C261.6,154.2,261.7,154.6,261.8,154.8z"/>
		<path class="st2" d="M263.2,154.8c-0.3-0.2-0.5-0.5-0.5-0.9c0-0.2,0.1-0.3,0.2-0.5s0.3-0.2,0.5-0.2c0,0,0.1,0,0.2,0
			c0,0.1,0,0.2,0,0.2c0,0.1,0,0.2,0,0.3c0,0.3,0.2,0.5,0.4,0.7c0.2,0.2,0.5,0.3,0.8,0.3c0.3,0,0.6-0.1,0.8-0.2
			c0.2-0.1,0.3-0.3,0.3-0.5c0-0.2,0-0.3-0.1-0.4c-0.1-0.1-0.2-0.2-0.3-0.3c-0.1-0.1-0.3-0.2-0.6-0.3c-0.1,0-0.1-0.1-0.2-0.1
			c-0.4-0.2-0.6-0.3-0.9-0.4s-0.4-0.3-0.5-0.5c-0.1-0.2-0.2-0.5-0.2-0.8c0-0.5,0.2-0.8,0.5-1c0.4-0.2,0.8-0.3,1.4-0.3s1,0.1,1.3,0.3
			s0.5,0.4,0.5,0.7c0,0.1,0,0.3-0.1,0.4c-0.1,0.1-0.2,0.2-0.4,0.2c0,0-0.1,0-0.1,0c0,0-0.1,0-0.2,0c0,0,0-0.1,0-0.2
			c0-0.1,0-0.3-0.1-0.3c0-0.2-0.1-0.3-0.3-0.4c-0.2-0.1-0.4-0.2-0.6-0.2c-0.2,0-0.5,0-0.6,0.1c-0.2,0.1-0.3,0.3-0.3,0.5
			c0,0.2,0.1,0.3,0.2,0.5c0.1,0.1,0.2,0.2,0.4,0.3c0.2,0.1,0.4,0.2,0.7,0.3c0.4,0.2,0.7,0.3,0.9,0.5c0.2,0.1,0.4,0.3,0.5,0.5
			c0.2,0.2,0.2,0.4,0.2,0.7c0,0.4-0.2,0.8-0.5,1.1c-0.4,0.3-0.9,0.4-1.7,0.4C264,155.1,263.5,155,263.2,154.8z"/>
		<path class="st2" d="M269.8,149.8c0.2,0,0.4,0,0.5,0l0,0.3c0,0.1,0,0.2-0.1,0.2c-0.1,0-0.1,0.1-0.2,0.1h-0.9v0.3l0,3
			c0,0.4,0.2,0.5,0.5,0.5c0.1,0,0.2,0,0.3,0c0.1,0,0.1-0.1,0.2-0.1c0.1,0.1,0.1,0.3,0.1,0.4c0,0.2-0.1,0.3-0.3,0.5
			c-0.2,0.1-0.4,0.2-0.7,0.2c-0.4,0-0.6-0.1-0.8-0.3c-0.2-0.2-0.3-0.5-0.3-0.9v-3.4h-0.1c-0.1,0-0.2,0-0.3,0s-0.2,0-0.3,0l0-0.3
			c0-0.1,0-0.2,0.1-0.2c0.1,0,0.1-0.1,0.2-0.1h0.4v-0.8c0-0.2,0.1-0.3,0.2-0.4s0.3-0.2,0.5-0.2c0.2,0,0.4,0.1,0.6,0.2
			c-0.1,0.3-0.1,0.7-0.1,1.1h0.2C269.4,149.8,269.6,149.8,269.8,149.8z"/>
		<path class="st2" d="M275.3,153.8c0,0.1,0,0.2-0.1,0.3c-0.1,0.3-0.4,0.6-0.7,0.7c-0.3,0.2-0.7,0.3-1.2,0.3c-0.8,0-1.4-0.2-1.8-0.7
			c-0.4-0.5-0.7-1.1-0.7-2c0-0.8,0.2-1.5,0.6-2c0.4-0.5,1-0.7,1.8-0.7c0.6,0,1.1,0.1,1.4,0.4s0.5,0.6,0.5,1.1c0,0.5-0.2,0.9-0.6,1.1
			c-0.4,0.3-0.9,0.4-1.6,0.4c-0.4,0-0.7,0-1,0c0,0.6,0.2,1.1,0.5,1.3s0.6,0.4,1.1,0.4c0.4,0,0.7-0.1,0.9-0.2
			c0.3-0.1,0.4-0.3,0.5-0.6C275.3,153.6,275.3,153.7,275.3,153.8z M272.5,150.7c-0.2,0.4-0.3,0.9-0.3,1.6c0.2,0,0.4,0,0.5,0
			c0.5,0,0.8-0.1,1.1-0.3c0.3-0.2,0.4-0.5,0.4-1c0-0.3-0.1-0.6-0.2-0.7s-0.3-0.2-0.6-0.2C273,150.1,272.7,150.3,272.5,150.7z"/>
		<path class="st2" d="M284,154.8c-0.2,0.2-0.4,0.3-0.6,0.3c-0.2,0-0.3-0.1-0.5-0.2s-0.2-0.2-0.2-0.4v-2.6c0-0.5-0.1-1-0.2-1.2
			s-0.3-0.4-0.6-0.4c-0.2,0-0.4,0.1-0.6,0.2c-0.2,0.2-0.3,0.4-0.4,0.8c-0.1,0.3-0.2,0.8-0.2,1.3v1.2c0,0.5,0.1,0.9,0.2,1.2
			c-0.1,0.1-0.2,0.1-0.3,0.2c-0.1,0-0.2,0.1-0.3,0.1c-0.2,0-0.3-0.1-0.4-0.2c-0.1-0.1-0.2-0.2-0.2-0.4v-2.6c0-0.6-0.1-1-0.2-1.3
			c-0.1-0.3-0.3-0.4-0.6-0.4c-0.2,0-0.4,0.1-0.6,0.3s-0.3,0.4-0.4,0.8c-0.1,0.4-0.2,0.8-0.2,1.3c0,0.8,0,1.3,0,1.5s0.1,0.5,0.2,0.7
			c-0.2,0.2-0.4,0.2-0.6,0.2c-0.2,0-0.3-0.1-0.4-0.2c-0.1-0.1-0.2-0.3-0.2-0.5l0-3.4c0-0.4-0.1-0.5-0.3-0.5c-0.1,0-0.1,0-0.2,0
			s-0.1,0.1-0.1,0.1c-0.1-0.1-0.1-0.3-0.1-0.4c0-0.2,0.1-0.3,0.2-0.5s0.3-0.2,0.5-0.2c0.3,0,0.5,0.1,0.7,0.3
			c0.2,0.2,0.3,0.5,0.3,0.9c0.1-0.4,0.3-0.7,0.6-0.9c0.3-0.2,0.6-0.3,1-0.3c0.4,0,0.7,0.1,1,0.3s0.4,0.5,0.5,0.9
			c0.1-0.4,0.3-0.7,0.6-0.9c0.3-0.2,0.6-0.3,1-0.3c1,0,1.5,0.7,1.5,2v1.9C283.8,154.1,283.9,154.5,284,154.8z"/>
		<path class="st2" d="M290,154.4c0,0.2-0.1,0.3-0.2,0.4s-0.3,0.2-0.6,0.2c-0.3,0-0.6-0.1-0.7-0.3c-0.2-0.2-0.3-0.6-0.3-1.1
			c-0.2,0.4-0.5,0.8-0.8,1c-0.3,0.3-0.7,0.4-1.2,0.4c-0.4,0-0.7-0.1-0.9-0.3c-0.2-0.2-0.4-0.5-0.4-0.9c0-0.4,0.2-0.8,0.5-1
			c0.3-0.3,0.7-0.5,1.2-0.6c0.5-0.1,1-0.2,1.5-0.2v-0.3c0-0.6-0.1-1-0.2-1.3c-0.2-0.3-0.4-0.4-0.8-0.4c-0.3,0-0.5,0.1-0.6,0.2
			c-0.2,0.1-0.2,0.3-0.2,0.6c0,0.2,0,0.3,0.1,0.4c0.1,0.1,0.2,0.2,0.3,0.3c-0.1,0.1-0.2,0.1-0.3,0.2c-0.1,0-0.2,0.1-0.3,0.1
			c-0.3,0-0.5-0.1-0.6-0.3c-0.2-0.2-0.2-0.4-0.2-0.6c0-0.4,0.2-0.7,0.5-0.9s0.9-0.3,1.5-0.3c0.7,0,1.2,0.2,1.6,0.5
			c0.3,0.3,0.5,0.9,0.5,1.6v1.8c0,0.4,0.1,0.5,0.3,0.5c0.1,0,0.1,0,0.2,0c0.1,0,0.1-0.1,0.1-0.1C290,154.2,290,154.3,290,154.4z
			 M287.4,154.1c0.2-0.2,0.4-0.4,0.6-0.7c0.2-0.3,0.2-0.6,0.2-0.9c-0.2,0-0.5,0-0.7,0c-0.2,0-0.4,0.1-0.6,0.2
			c-0.2,0.1-0.4,0.2-0.5,0.4c-0.1,0.2-0.2,0.4-0.2,0.6c0,0.2,0,0.4,0.1,0.5c0.1,0.1,0.2,0.2,0.4,0.2
			C286.9,154.3,287.1,154.2,287.4,154.1z"/>
		<path class="st2" d="M297.2,154.2c0,0.1,0.1,0.2,0.1,0.3c0,0.1,0,0.2-0.1,0.3c0,0.1-0.1,0.1-0.2,0.1h-3.2c-0.2,0-0.3-0.1-0.5-0.2
			c-0.1-0.1-0.2-0.2-0.2-0.4l0-4.9c0-0.5-0.1-0.9-0.2-1.2c0.1-0.1,0.3-0.2,0.4-0.2c0.1,0,0.3-0.1,0.6-0.1h3c0.1,0,0.2,0.1,0.2,0.3
			c0,0.1,0,0.3-0.1,0.4s-0.1,0.2-0.2,0.3c-0.8-0.3-1.7-0.4-2.5-0.4v2.5h2.3c0,0.1,0,0.2,0,0.3c0,0.1,0,0.2,0,0.3h-2.3v2.8
			c0.4,0,0.9-0.1,1.4-0.1c0.5-0.1,1-0.2,1.3-0.3C297.1,154,297.1,154.1,297.2,154.2z"/>
		<path class="st2" d="M298.5,154.8c-0.3-0.2-0.5-0.5-0.5-0.9c0-0.2,0.1-0.3,0.2-0.5s0.3-0.2,0.5-0.2c0,0,0.1,0,0.2,0
			c0,0.1,0,0.2,0,0.2c0,0.1,0,0.2,0,0.3c0,0.3,0.2,0.5,0.4,0.7c0.2,0.2,0.5,0.3,0.8,0.3c0.3,0,0.6-0.1,0.8-0.2
			c0.2-0.1,0.3-0.3,0.3-0.5c0-0.2,0-0.3-0.1-0.4c-0.1-0.1-0.2-0.2-0.3-0.3c-0.1-0.1-0.3-0.2-0.6-0.3c-0.1,0-0.1-0.1-0.2-0.1
			c-0.4-0.2-0.6-0.3-0.9-0.4s-0.4-0.3-0.5-0.5c-0.1-0.2-0.2-0.5-0.2-0.8c0-0.5,0.2-0.8,0.5-1c0.4-0.2,0.8-0.3,1.4-0.3s1,0.1,1.3,0.3
			s0.5,0.4,0.5,0.7c0,0.1,0,0.3-0.1,0.4c-0.1,0.1-0.2,0.2-0.4,0.2c0,0-0.1,0-0.1,0c0,0-0.1,0-0.2,0c0,0,0-0.1,0-0.2
			c0-0.1,0-0.3-0.1-0.3c0-0.2-0.1-0.3-0.3-0.4c-0.2-0.1-0.4-0.2-0.6-0.2c-0.2,0-0.5,0-0.6,0.1c-0.2,0.1-0.3,0.3-0.3,0.5
			c0,0.2,0.1,0.3,0.2,0.5c0.1,0.1,0.2,0.2,0.4,0.3c0.2,0.1,0.4,0.2,0.7,0.3c0.4,0.2,0.7,0.3,0.9,0.5c0.2,0.1,0.4,0.3,0.5,0.5
			c0.2,0.2,0.2,0.4,0.2,0.7c0,0.4-0.2,0.8-0.5,1.1c-0.4,0.3-0.9,0.4-1.7,0.4C299.3,155.1,298.8,155,298.5,154.8z"/>
		<path class="st2" d="M307.4,150.4c0.3,0.5,0.4,1.1,0.4,1.8c0,0.9-0.2,1.6-0.6,2.1c-0.4,0.5-0.9,0.8-1.6,0.8
			c-0.3,0-0.6-0.1-0.8-0.2c-0.2-0.1-0.4-0.3-0.5-0.5v0.8c0,0.7,0.1,1.3,0.2,1.7c-0.2,0.2-0.4,0.2-0.6,0.2c-0.2,0-0.3-0.1-0.5-0.2
			c-0.1-0.1-0.2-0.2-0.2-0.4l0-5.5c0-0.2,0-0.3-0.1-0.4c0-0.1-0.1-0.1-0.2-0.1c-0.1,0-0.2,0-0.3,0.1c-0.1-0.1-0.1-0.3-0.1-0.4
			c0-0.2,0.1-0.3,0.2-0.4c0.1-0.1,0.3-0.2,0.5-0.2c0.6,0,0.9,0.4,1,1.3c0.3-0.9,0.9-1.3,1.7-1.3
			C306.7,149.7,307.1,149.9,307.4,150.4z M306.6,152.2c0-0.6-0.1-1.1-0.2-1.4c-0.1-0.3-0.4-0.5-0.7-0.5c-0.3,0-0.5,0.1-0.7,0.4
			c-0.2,0.2-0.3,0.6-0.4,1s-0.1,0.8-0.1,1.3c0,0.5,0.1,0.9,0.2,1.2c0.2,0.3,0.4,0.4,0.8,0.4C306.2,154.5,306.6,153.7,306.6,152.2z"
			/>
		<path class="st2" d="M313.7,154.4c0,0.2-0.1,0.3-0.2,0.4s-0.3,0.2-0.6,0.2c-0.3,0-0.6-0.1-0.7-0.3c-0.2-0.2-0.3-0.6-0.3-1.1
			c-0.2,0.4-0.5,0.8-0.8,1c-0.3,0.3-0.7,0.4-1.2,0.4c-0.4,0-0.7-0.1-0.9-0.3c-0.2-0.2-0.4-0.5-0.4-0.9c0-0.4,0.2-0.8,0.5-1
			c0.3-0.3,0.7-0.5,1.2-0.6c0.5-0.1,1-0.2,1.5-0.2v-0.3c0-0.6-0.1-1-0.2-1.3c-0.2-0.3-0.4-0.4-0.8-0.4c-0.3,0-0.5,0.1-0.6,0.2
			c-0.2,0.1-0.2,0.3-0.2,0.6c0,0.2,0,0.3,0.1,0.4c0.1,0.1,0.2,0.2,0.3,0.3c-0.1,0.1-0.2,0.1-0.3,0.2c-0.1,0-0.2,0.1-0.3,0.1
			c-0.3,0-0.5-0.1-0.6-0.3c-0.2-0.2-0.2-0.4-0.2-0.6c0-0.4,0.2-0.7,0.5-0.9s0.9-0.3,1.5-0.3c0.7,0,1.2,0.2,1.6,0.5
			c0.3,0.3,0.5,0.9,0.5,1.6v1.8c0,0.4,0.1,0.5,0.3,0.5c0.1,0,0.1,0,0.2,0c0.1,0,0.1-0.1,0.1-0.1
			C313.6,154.2,313.7,154.3,313.7,154.4z M311,154.1c0.2-0.2,0.4-0.4,0.6-0.7c0.2-0.3,0.2-0.6,0.2-0.9c-0.2,0-0.5,0-0.7,0
			c-0.2,0-0.4,0.1-0.6,0.2c-0.2,0.1-0.4,0.2-0.5,0.4c-0.1,0.2-0.2,0.4-0.2,0.6c0,0.2,0,0.4,0.1,0.5c0.1,0.1,0.2,0.2,0.4,0.2
			C310.6,154.3,310.8,154.2,311,154.1z"/>
		<path class="st2" d="M319.1,154.8c-0.2,0.2-0.4,0.3-0.6,0.3c-0.2,0-0.3-0.1-0.5-0.2c-0.1-0.1-0.2-0.2-0.2-0.4v-2.6
			c0-0.6-0.1-1-0.2-1.2c-0.1-0.3-0.3-0.4-0.7-0.4c-0.2,0-0.4,0.1-0.6,0.3c-0.2,0.2-0.3,0.4-0.4,0.8c-0.1,0.3-0.2,0.8-0.2,1.3
			c0,0.8,0,1.3,0,1.6c0,0.3,0.1,0.5,0.2,0.7c-0.1,0.1-0.2,0.1-0.3,0.2c-0.1,0.1-0.2,0.1-0.4,0.1c-0.2,0-0.3-0.1-0.5-0.2
			s-0.2-0.3-0.2-0.5V151c0-0.2,0-0.3-0.1-0.4c0-0.1-0.1-0.1-0.2-0.1c-0.1,0-0.2,0-0.3,0.1c-0.1-0.1-0.1-0.3-0.1-0.4
			c0-0.2,0.1-0.3,0.2-0.4c0.1-0.1,0.3-0.2,0.5-0.2c0.3,0,0.5,0.1,0.7,0.3s0.2,0.5,0.2,0.9v0c0.1-0.4,0.3-0.7,0.6-0.9
			s0.6-0.3,1.1-0.3c0.5,0,1,0.2,1.2,0.5c0.3,0.3,0.4,0.8,0.4,1.5v1.9C318.9,154.2,319,154.6,319.1,154.8z M318,148.9
			c-0.1,0.2-0.3,0.3-0.6,0.3c-0.1,0-0.2,0-0.3-0.1c-0.1,0-0.2-0.1-0.3-0.2c-0.1-0.1-0.2-0.1-0.3-0.2c-0.1,0-0.2-0.1-0.3-0.1
			c-0.3,0-0.5,0.1-0.6,0.4h0c-0.1,0-0.1,0-0.2-0.1c0-0.3,0.1-0.6,0.3-0.7c0.2-0.2,0.4-0.2,0.6-0.2c0.1,0,0.2,0,0.3,0.1
			s0.2,0.1,0.3,0.2c0.1,0.1,0.2,0.1,0.3,0.2c0.1,0,0.2,0.1,0.3,0.1c0.1,0,0.2,0,0.3-0.1c0.1-0.1,0.1-0.2,0.2-0.3c0.1,0,0.1,0,0.1,0
			s0.1,0,0.1,0.1C318.2,148.5,318.1,148.7,318,148.9z"/>
		<path class="st2" d="M320.6,154.4c-0.4-0.5-0.6-1.1-0.6-2c0-0.9,0.2-1.5,0.6-2s1-0.7,1.8-0.7c0.8,0,1.3,0.2,1.8,0.7
			c0.4,0.5,0.6,1.1,0.6,2c0,0.8-0.2,1.5-0.6,2c-0.4,0.5-1,0.7-1.8,0.7S321,154.8,320.6,154.4z M323.3,154.1c0.2-0.4,0.3-1,0.3-1.7
			c0-0.8-0.1-1.3-0.3-1.7c-0.2-0.4-0.5-0.6-0.9-0.6s-0.7,0.2-0.9,0.6c-0.2,0.4-0.3,1-0.3,1.7c0,0.7,0.1,1.3,0.3,1.7
			c0.2,0.4,0.5,0.6,0.9,0.6S323,154.5,323.3,154.1z"/>
		<path class="st2" d="M326.1,154.7c-0.2-0.2-0.3-0.5-0.3-0.9v-5.6c0-0.2,0.1-0.3,0.2-0.4s0.3-0.2,0.5-0.2c0.2,0,0.5,0.1,0.6,0.3
			c-0.1,0.2-0.1,0.5-0.1,0.8s0,0.7,0,1.2v3.9c0,0.4,0.1,0.5,0.4,0.5c0.1,0,0.1,0,0.2,0c0.1,0,0.1-0.1,0.1-0.1
			c0.1,0.1,0.1,0.2,0.1,0.4c0,0.2-0.1,0.3-0.2,0.4c-0.2,0.1-0.4,0.2-0.6,0.2C326.6,155.1,326.3,154.9,326.1,154.7z"/>
	</g>
</g>
</svg>
